HIERARCHY
ROOT Hips
{
	OFFSET 0.0000 0.0000 0.0000
	CHANNELS 6 Xposition Yposition Zposition Zrotation Xrotation Yrotation
	JOINT Ab
	{
		OFFSET -0.0000 8.1305 -0.0000
		CHANNELS 3 Zrotation Xrotation Yrotation
		JOINT Chest
		{
			OFFSET -0.0000 26.2902 -0.0000
			CHANNELS 3 Zrotation Xrotation Yrotation
			JOINT Neck
			{
				OFFSET -0.0000 26.2902 0.0000
				CHANNELS 3 Zrotation Xrotation Yrotation
				JOINT Head
				{
					OFFSET -0.0000 10.8167 0.0000
					CHANNELS 3 Zrotation Xrotation Yrotation
					End Site
					{
						OFFSET -0.0000 16.7167 0.0000
					}
				}
			}
			JOINT LeftCollar
			{
				OFFSET -0.0000 26.2902 0.0000
				CHANNELS 3 Zrotation Xrotation Yrotation
				JOINT LeftShoulder
				{
					OFFSET 19.6667 -0.0000 0.0000
					CHANNELS 3 Zrotation Xrotation Yrotation
					JOINT LeftElbow
					{
						OFFSET 27.2190 0.0000 0.0000
						CHANNELS 3 Zrotation Xrotation Yrotation
						JOINT LeftWrist
						{
							OFFSET 30.7431 0.0000 0.0000
							CHANNELS 3 Zrotation Xrotation Yrotation
							End Site
							{
								OFFSET 0.0000 -14.7500 0.0000
							}
						}
					}
				}
			}
			JOINT RightCollar
			{
				OFFSET -0.0000 26.2902 0.0000
				CHANNELS 3 Zrotation Xrotation Yrotation
				JOINT RightShoulder
				{
					OFFSET -19.6667 0.0000 0.0000
					CHANNELS 3 Zrotation Xrotation Yrotation
					JOINT RightElbow
					{
						OFFSET -27.2190 0.0000 0.0000
						CHANNELS 3 Zrotation Xrotation Yrotation
						JOINT RightWrist
						{
							OFFSET -30.7431 0.0000 0.0000
							CHANNELS 3 Zrotation Xrotation Yrotation
							End Site
							{
								OFFSET -0.0000 -14.7500 0.0000
							}
						}
					}
				}
			}
		}
	}
	JOINT LeftHip
	{
		OFFSET 11.8000 0.0000 0.0000
		CHANNELS 3 Zrotation Xrotation Yrotation
		JOINT LeftKnee
		{
			OFFSET -0.0000 -39.7832 0.0000
			CHANNELS 3 Zrotation Xrotation Yrotation
			JOINT LeftAnkle
			{
				OFFSET -0.0000 -41.7317 0.0000
				CHANNELS 3 Zrotation Xrotation Yrotation
				End Site
				{
					OFFSET -0.0000 -4.9167 16.7167
				}
			}
		}
	}
	JOINT RightHip
	{
		OFFSET -11.8000 0.0000 0.0000
		CHANNELS 3 Zrotation Xrotation Yrotation
		JOINT RightKnee
		{
			OFFSET -0.0000 -39.7832 0.0000
			CHANNELS 3 Zrotation Xrotation Yrotation
			JOINT RightAnkle
			{
				OFFSET -0.0000 -41.7317 0.0000
				CHANNELS 3 Zrotation Xrotation Yrotation
				End Site
				{
					OFFSET -0.0000 -4.9167 16.7167
				}
			}
		}
	}
}
MOTION
Frames: 13
Frame Time: 0.010000
-11.7329 85.4747 76.2399 354.0768 347.8819 200.3728 359.1690 348.1789 358.0368 358.7901 15.9079 358.2956 346.7425 348.0498 351.9630 8.4472 7.4453 352.7992 337.6607 357.0320 14.8325 330.3429 54.4709 332.2731 13.8995 353.3947 309.9026 91.2106 355.3515 349.8392 26.9622 355.9614 343.3450 50.2162 38.5793 356.7927 336.1040 350.3946 42.8512 271.3457 352.8390 5.1026 357.2192 16.1742 359.8572 357.6107 6.4703 1.9538 347.0304 344.6414 12.0587 330.6212 326.3228 359.4078 17.6275 24.0583 5.4886 357.0103 343.2451 314.3246 
-11.5155 85.4374 75.3330 354.2376 347.5994 200.3102 359.6148 348.0913 358.1722 358.7815 15.9671 358.3890 346.7066 347.8509 351.8969 8.3124 7.2261 352.7859 337.4273 357.0216 14.6821 330.1033 54.1397 332.6269 13.8750 353.5090 309.9661 91.4590 355.3605 349.8834 27.0767 355.9455 343.4026 50.0497 38.7789 356.9655 336.0049 350.4642 42.2397 271.4042 352.8780 5.0702 357.5080 16.0448 359.8641 357.6957 7.0214 2.0266 346.4885 345.0891 12.3277 330.3047 325.4788 358.5319 18.8028 25.9494 5.5890 357.4677 342.2372 314.2653 
-11.2635 85.4352 74.3833 354.5411 347.4212 200.1643 0.1222 347.9732 358.3423 358.9268 16.1604 358.4894 346.6910 347.5961 351.8330 8.1144 7.0403 352.7806 337.2228 357.0270 14.4227 329.4473 53.6886 333.4853 13.7898 353.5412 309.7944 91.6244 355.3943 349.4828 27.1037 355.9606 343.4804 49.8923 39.0616 357.2110 335.7841 350.4932 41.5229 271.6409 352.8587 5.0312 358.0108 16.0159 0.1218 357.6924 7.4244 2.1947 345.8163 345.7238 12.5090 330.4065 324.7659 357.7777 19.5825 27.5871 5.4308 357.8866 341.7470 314.8955 
-11.0267 85.4592 73.4328 354.7908 347.2735 200.0047 0.5920 347.9447 358.4545 359.0967 16.2611 358.5275 346.7520 347.3413 351.8305 7.7899 6.9831 352.8255 337.3830 357.1313 14.0812 327.7201 53.9773 334.9435 14.6849 352.8916 309.8637 91.3498 355.3317 349.3459 27.0236 356.0220 343.6748 50.0023 39.3162 357.2780 335.4499 350.4915 40.7266 271.9785 352.7743 5.1577 358.4707 16.0505 0.4050 357.6500 7.7869 2.3399 344.6315 346.4787 12.6995 330.5972 324.2241 356.9701 20.0156 29.0267 5.2358 358.4864 341.2958 315.7734 
-10.7985 85.5088 72.4676 354.9462 347.1276 199.8639 0.8606 348.0474 358.5290 359.4370 16.1344 358.5258 346.7900 347.2028 351.8878 7.4354 7.0565 352.9155 337.4784 357.1982 13.9392 326.6153 54.5686 335.7320 15.5356 352.4646 310.1735 91.3300 355.3981 349.8438 26.8974 356.0747 343.8268 49.9739 39.6233 357.3776 335.1689 350.5305 40.0302 272.2534 352.8766 5.1797 358.8181 16.0974 0.8375 357.6871 8.1630 2.5388 343.3683 347.4669 12.6903 330.8085 323.9214 356.3129 20.2268 30.1965 5.2464 359.2633 340.8164 316.4228 
-10.5859 85.5898 71.4694 354.9803 347.0001 199.7558 1.0055 348.1442 358.5468 359.7447 16.0253 358.4825 346.6162 347.3158 351.9169 7.6179 6.9734 352.9481 337.4113 357.2082 13.9188 326.4516 54.8759 335.9650 15.7269 352.4936 310.2210 91.5960 355.5636 350.4564 26.7528 356.1123 343.8806 49.8670 40.0992 357.6352 334.8925 350.5984 39.2865 272.3633 353.0402 4.9782 359.0705 16.2131 1.3466 357.7163 8.4725 2.7874 342.8857 348.7180 12.6180 331.0484 323.9318 355.7973 20.2866 31.0073 5.4600 359.6701 340.4559 316.8215 
-10.3857 85.7022 70.4667 354.8937 346.8490 199.7328 0.9952 348.1999 358.5364 0.0552 15.9737 358.4285 346.4948 347.4472 351.9333 7.7022 6.9751 352.9578 337.4963 357.2221 13.9228 326.1663 55.4830 336.0843 16.0970 352.3411 310.3997 91.6592 355.6387 350.9605 26.6260 356.1408 343.8990 49.6712 40.5528 357.9701 334.6271 350.6695 38.5934 272.5449 353.2274 4.8089 359.1969 16.2813 1.8461 357.7725 8.8226 3.3711 342.7911 350.2373 12.2835 331.2064 324.1896 355.3701 20.3315 31.5245 5.7773 359.4503 340.2283 316.9300 
-10.1940 85.8507 69.4674 354.7489 346.6787 199.8000 1.0410 348.1867 358.4570 0.0864 16.0041 358.3365 346.5026 347.6056 351.9425 7.9113 7.0544 352.9284 337.7677 357.2528 14.0180 326.1937 56.2682 335.7275 16.4728 352.1962 310.7093 91.5749 355.6725 351.5157 26.6288 356.1353 343.8924 49.4224 40.9158 358.3592 334.4395 350.7590 38.0053 272.4894 353.4345 4.8415 359.3352 16.1665 1.8970 357.7120 9.4001 4.3088 342.8460 351.6996 11.8345 331.3361 324.6408 355.0122 20.3358 31.8428 6.3479 358.8927 340.0609 316.7409 
-9.9995 86.0374 68.4948 354.5833 346.4450 199.9360 0.9666 348.2504 358.3890 0.2102 15.7952 358.2618 346.7185 347.7255 352.0521 7.6905 7.2463 353.0015 337.9224 357.2575 14.1482 326.2752 56.8816 335.4756 16.5940 352.2205 310.9049 91.4870 355.6478 351.7235 26.6131 356.1347 343.8106 49.0832 41.2131 358.7885 334.3030 350.8790 37.5327 272.3808 353.4609 4.5250 359.3619 15.9349 2.1998 357.7499 10.0158 4.7786 343.1969 352.8808 11.6496 331.4387 325.1362 354.8983 20.3523 32.0562 7.3252 358.2116 339.7482 315.9412 
-9.7873 86.2465 67.5266 354.4849 346.2332 200.1229 0.9425 348.3259 358.3201 0.3149 15.5691 358.1807 347.0050 347.8739 352.0771 7.4077 7.4525 352.9759 337.9793 357.2352 14.1808 326.5527 57.1770 335.3208 16.2903 352.4304 310.7675 91.6878 355.7280 351.7655 26.6800 356.0956 343.6898 48.6511 41.1713 359.2061 334.2818 350.9708 37.2556 272.6168 353.5605 4.8304 359.4691 15.6103 2.3824 357.8561 10.7190 4.6766 344.1339 354.1476 11.8228 331.6745 325.6776 355.0015 20.3873 32.0668 7.6473 357.7420 339.4222 315.5220 
-9.5591 86.4804 66.5834 354.4811 345.9925 200.3257 0.9522 348.3998 358.2899 0.4627 15.2526 358.1329 347.2198 347.9956 352.0538 7.1435 7.7009 352.9186 338.0637 357.2423 14.2069 326.4595 57.3484 335.3664 15.9290 352.6692 310.7008 91.7038 355.5975 351.2296 26.6827 356.0737 343.5690 48.3310 41.0554 359.5467 334.2649 351.0157 37.0975 272.4985 353.6340 4.9716 359.5715 15.0584 2.5676 357.9739 11.6369 4.9194 346.8341 355.7805 11.4626 332.0320 326.1709 355.3709 20.4866 31.8945 7.5722 357.2718 339.2081 315.2505 
-9.3464 86.7281 65.6787 354.5014 345.7708 200.5210 1.0650 348.5240 358.2581 0.4308 14.8120 358.0962 347.6416 348.4444 352.0983 6.8314 7.6006 352.8990 338.2139 357.2809 14.0998 325.9739 57.3069 335.9037 15.4486 352.9500 310.4706 91.6511 355.4879 350.4854 26.6984 356.0773 343.5770 48.1933 40.8786 359.6302 334.1500 350.9749 37.0128 272.7138 353.5309 5.3472 359.6131 14.4795 2.7318 358.1849 12.4469 4.9796 348.2449 356.8340 11.3106 332.4392 326.6578 355.7831 20.5755 31.6312 7.1986 356.8475 339.0965 315.2176 
-9.1417 86.9897 64.7940 354.4952 345.4992 200.6200 1.0911 348.5255 358.2755 0.5686 14.6291 358.0971 347.6307 348.3557 352.0523 6.7648 7.8450 352.8546 338.3507 357.3068 14.0791 325.4576 57.2778 336.2387 15.0999 353.1212 310.2052 91.5022 355.3983 349.8347 26.6370 356.0814 343.5269 47.7950 40.7144 0.0414 334.0077 350.9221 37.0163 272.7050 353.5629 5.3295 359.5937 13.7734 2.7256 358.1339 13.2804 5.6593 349.9918 357.5870 11.3586 332.8583 327.0229 356.1407 20.5937 31.4290 6.8346 356.2896 339.0842 315.1943 
